<?xml version="1.0" standalone="no"?>
<!DOCTYPE svg PUBLIC "-//W3C//DTD SVG 20010904//EN"
 "http://www.w3.org/TR/2001/REC-SVG-20010904/DTD/svg10.dtd">
<svg version="1.0" xmlns="http://www.w3.org/2000/svg"
 width="256.000000pt" height="256.000000pt" viewBox="0 0 256.000000 256.000000"
 preserveAspectRatio="xMidYMid meet">
<metadata>
Created by potrace 1.14, written by Peter Selinger 2001-2017
</metadata>
<g transform="translate(0.000000,256.000000) scale(0.100000,-0.100000)"
fill="#000000" stroke="none">
<path d="M336 2534 c-61 -31 -93 -64 -119 -124 -20 -44 -20 -65 -20 -1132 l0
-1086 27 -56 c27 -56 60 -86 126 -118 32 -16 102 -17 940 -15 l905 2 50 33
c56 37 88 79 105 138 8 28 10 340 8 1124 -3 1034 -4 1087 -22 1122 -23 47 -68
91 -115 115 -34 17 -93 18 -936 20 l-900 2 -49 -25z"/>
</g>
</svg>
